<svg id="visual" viewBox="0 0 1920 1080" width="1920" height="1080" xmlns="http://www.w3.org/2000/svg" xmlns:xlink="http://www.w3.org/1999/xlink" version="1.1"><rect x="0" y="0" width="1920" height="1080" fill="#c8b6f6"></rect><path d="M0 693L80 640.7C160 588.3 320 483.7 480 451.2C640 418.7 800 458.3 960 508.5C1120 558.7 1280 619.3 1440 646.8C1600 674.3 1760 668.7 1840 665.8L1920 663L1920 1081L1840 1081C1760 1081 1600 1081 1440 1081C1280 1081 1120 1081 960 1081C800 1081 640 1081 480 1081C320 1081 160 1081 80 1081L0 1081Z" fill="#eee2d3"></path><path d="M0 601L80 597.7C160 594.3 320 587.7 480 588.5C640 589.3 800 597.7 960 583.8C1120 570 1280 534 1440 560C1600 586 1760 674 1840 718L1920 762L1920 1081L1840 1081C1760 1081 1600 1081 1440 1081C1280 1081 1120 1081 960 1081C800 1081 640 1081 480 1081C320 1081 160 1081 80 1081L0 1081Z" fill="#e0ccb5"></path><path d="M0 770L80 764.8C160 759.7 320 749.3 480 705.8C640 662.3 800 585.7 960 554.2C1120 522.7 1280 536.3 1440 557.5C1600 578.7 1760 607.3 1840 621.7L1920 636L1920 1081L1840 1081C1760 1081 1600 1081 1440 1081C1280 1081 1120 1081 960 1081C800 1081 640 1081 480 1081C320 1081 160 1081 80 1081L0 1081Z" fill="#d3b798"></path><path d="M0 690L80 702C160 714 320 738 480 725.5C640 713 800 664 960 653.3C1120 642.7 1280 670.3 1440 682C1600 693.7 1760 689.3 1840 687.2L1920 685L1920 1081L1840 1081C1760 1081 1600 1081 1440 1081C1280 1081 1120 1081 960 1081C800 1081 640 1081 480 1081C320 1081 160 1081 80 1081L0 1081Z" fill="#c6a27c"></path><path d="M0 677L80 690.2C160 703.3 320 729.7 480 741C640 752.3 800 748.7 960 763.8C1120 779 1280 813 1440 827.8C1600 842.7 1760 838.3 1840 836.2L1920 834L1920 1081L1840 1081C1760 1081 1600 1081 1440 1081C1280 1081 1120 1081 960 1081C800 1081 640 1081 480 1081C320 1081 160 1081 80 1081L0 1081Z" fill="#b88c62"></path><path d="M0 879L80 880.2C160 881.3 320 883.7 480 879C640 874.3 800 862.7 960 863.2C1120 863.7 1280 876.3 1440 880.7C1600 885 1760 881 1840 879L1920 877L1920 1081L1840 1081C1760 1081 1600 1081 1440 1081C1280 1081 1120 1081 960 1081C800 1081 640 1081 480 1081C320 1081 160 1081 80 1081L0 1081Z" fill="#ab7748"></path><path d="M0 849L80 865.3C160 881.7 320 914.3 480 931C640 947.7 800 948.3 960 942.3C1120 936.3 1280 923.7 1440 914.8C1600 906 1760 901 1840 898.5L1920 896L1920 1081L1840 1081C1760 1081 1600 1081 1440 1081C1280 1081 1120 1081 960 1081C800 1081 640 1081 480 1081C320 1081 160 1081 80 1081L0 1081Z" fill="#9d6230"></path><path d="M0 946L80 957C160 968 320 990 480 997.7C640 1005.3 800 998.7 960 998.8C1120 999 1280 1006 1440 1000.3C1600 994.7 1760 976.3 1840 967.2L1920 958L1920 1081L1840 1081C1760 1081 1600 1081 1440 1081C1280 1081 1120 1081 960 1081C800 1081 640 1081 480 1081C320 1081 160 1081 80 1081L0 1081Z" fill="#8f4d17"></path></svg>