<svg id="visual" viewBox="0 0 1920 1080" width="1920" height="1080" xmlns="http://www.w3.org/2000/svg" xmlns:xlink="http://www.w3.org/1999/xlink" version="1.1"><rect x="0" y="0" width="1920" height="1080" fill="#c8b6f6"></rect><path d="M0 483L26.7 503.7C53.3 524.3 106.7 565.7 160 553C213.3 540.3 266.7 473.7 320 413C373.3 352.3 426.7 297.7 480 306.7C533.3 315.7 586.7 388.3 640 449.5C693.3 510.7 746.7 560.3 800 546.5C853.3 532.7 906.7 455.3 960 482.8C1013.3 510.3 1066.7 642.7 1120 638.3C1173.3 634 1226.7 493 1280 507.3C1333.3 521.7 1386.7 691.3 1440 736.7C1493.3 782 1546.7 703 1600 679.7C1653.3 656.3 1706.7 688.7 1760 704.2C1813.3 719.7 1866.7 718.3 1893.3 717.7L1920 717L1920 1081L1893.3 1081C1866.7 1081 1813.3 1081 1760 1081C1706.7 1081 1653.3 1081 1600 1081C1546.7 1081 1493.3 1081 1440 1081C1386.7 1081 1333.3 1081 1280 1081C1226.7 1081 1173.3 1081 1120 1081C1066.7 1081 1013.3 1081 960 1081C906.7 1081 853.3 1081 800 1081C746.7 1081 693.3 1081 640 1081C586.7 1081 533.3 1081 480 1081C426.7 1081 373.3 1081 320 1081C266.7 1081 213.3 1081 160 1081C106.7 1081 53.3 1081 26.7 1081L0 1081Z" fill="#eee2d3"></path><path d="M0 712L26.7 696.5C53.3 681 106.7 650 160 660C213.3 670 266.7 721 320 724C373.3 727 426.7 682 480 687.3C533.3 692.7 586.7 748.3 640 789C693.3 829.7 746.7 855.3 800 787C853.3 718.7 906.7 556.3 960 469.7C1013.3 383 1066.7 372 1120 408.7C1173.3 445.3 1226.7 529.7 1280 526.5C1333.3 523.3 1386.7 432.7 1440 418.5C1493.3 404.3 1546.7 466.7 1600 490.8C1653.3 515 1706.7 501 1760 504.2C1813.3 507.3 1866.7 527.7 1893.3 537.8L1920 548L1920 1081L1893.3 1081C1866.7 1081 1813.3 1081 1760 1081C1706.7 1081 1653.3 1081 1600 1081C1546.7 1081 1493.3 1081 1440 1081C1386.7 1081 1333.3 1081 1280 1081C1226.7 1081 1173.3 1081 1120 1081C1066.7 1081 1013.3 1081 960 1081C906.7 1081 853.3 1081 800 1081C746.7 1081 693.3 1081 640 1081C586.7 1081 533.3 1081 480 1081C426.7 1081 373.3 1081 320 1081C266.7 1081 213.3 1081 160 1081C106.7 1081 53.3 1081 26.7 1081L0 1081Z" fill="#e0ccb5"></path><path d="M0 574L26.7 620.3C53.3 666.7 106.7 759.3 160 748.2C213.3 737 266.7 622 320 622C373.3 622 426.7 737 480 761.8C533.3 786.7 586.7 721.3 640 731.7C693.3 742 746.7 828 800 796.2C853.3 764.3 906.7 614.7 960 560.3C1013.3 506 1066.7 547 1120 558C1173.3 569 1226.7 550 1280 596.2C1333.3 642.3 1386.7 753.7 1440 783.2C1493.3 812.7 1546.7 760.3 1600 718.2C1653.3 676 1706.7 644 1760 629.7C1813.3 615.3 1866.7 618.7 1893.3 620.3L1920 622L1920 1081L1893.3 1081C1866.7 1081 1813.3 1081 1760 1081C1706.7 1081 1653.3 1081 1600 1081C1546.7 1081 1493.3 1081 1440 1081C1386.7 1081 1333.3 1081 1280 1081C1226.7 1081 1173.3 1081 1120 1081C1066.7 1081 1013.3 1081 960 1081C906.7 1081 853.3 1081 800 1081C746.7 1081 693.3 1081 640 1081C586.7 1081 533.3 1081 480 1081C426.7 1081 373.3 1081 320 1081C266.7 1081 213.3 1081 160 1081C106.7 1081 53.3 1081 26.7 1081L0 1081Z" fill="#d3b798"></path><path d="M0 690L26.7 691.2C53.3 692.3 106.7 694.7 160 733C213.3 771.3 266.7 845.7 320 883C373.3 920.3 426.7 920.7 480 900.2C533.3 879.7 586.7 838.3 640 792.3C693.3 746.3 746.7 695.7 800 702.7C853.3 709.7 906.7 774.3 960 773C1013.3 771.7 1066.7 704.3 1120 684.7C1173.3 665 1226.7 693 1280 735.5C1333.3 778 1386.7 835 1440 854C1493.3 873 1546.7 854 1600 809.8C1653.3 765.7 1706.7 696.3 1760 696.8C1813.3 697.3 1866.7 767.7 1893.3 802.8L1920 838L1920 1081L1893.3 1081C1866.7 1081 1813.3 1081 1760 1081C1706.7 1081 1653.3 1081 1600 1081C1546.7 1081 1493.3 1081 1440 1081C1386.7 1081 1333.3 1081 1280 1081C1226.7 1081 1173.3 1081 1120 1081C1066.7 1081 1013.3 1081 960 1081C906.7 1081 853.3 1081 800 1081C746.7 1081 693.3 1081 640 1081C586.7 1081 533.3 1081 480 1081C426.7 1081 373.3 1081 320 1081C266.7 1081 213.3 1081 160 1081C106.7 1081 53.3 1081 26.7 1081L0 1081Z" fill="#c6a27c"></path><path d="M0 878L26.7 858.2C53.3 838.3 106.7 798.7 160 785.3C213.3 772 266.7 785 320 776.7C373.3 768.3 426.7 738.7 480 733.5C533.3 728.3 586.7 747.7 640 776.7C693.3 805.7 746.7 844.3 800 847.7C853.3 851 906.7 819 960 817.5C1013.3 816 1066.7 845 1120 851.7C1173.3 858.3 1226.7 842.7 1280 827.7C1333.3 812.7 1386.7 798.3 1440 765.7C1493.3 733 1546.7 682 1600 710.2C1653.3 738.3 1706.7 845.7 1760 851.5C1813.3 857.3 1866.7 761.7 1893.3 713.8L1920 666L1920 1081L1893.3 1081C1866.7 1081 1813.3 1081 1760 1081C1706.7 1081 1653.3 1081 1600 1081C1546.7 1081 1493.3 1081 1440 1081C1386.7 1081 1333.3 1081 1280 1081C1226.7 1081 1173.3 1081 1120 1081C1066.7 1081 1013.3 1081 960 1081C906.7 1081 853.3 1081 800 1081C746.7 1081 693.3 1081 640 1081C586.7 1081 533.3 1081 480 1081C426.7 1081 373.3 1081 320 1081C266.7 1081 213.3 1081 160 1081C106.7 1081 53.3 1081 26.7 1081L0 1081Z" fill="#b88c62"></path><path d="M0 845L26.7 853.7C53.3 862.3 106.7 879.7 160 875.3C213.3 871 266.7 845 320 824.3C373.3 803.7 426.7 788.3 480 794.3C533.3 800.3 586.7 827.7 640 821.5C693.3 815.3 746.7 775.7 800 752.8C853.3 730 906.7 724 960 726.5C1013.3 729 1066.7 740 1120 773C1173.3 806 1226.7 861 1280 857.7C1333.3 854.3 1386.7 792.7 1440 783.2C1493.3 773.7 1546.7 816.3 1600 820.7C1653.3 825 1706.7 791 1760 790.2C1813.3 789.3 1866.7 821.7 1893.3 837.8L1920 854L1920 1081L1893.3 1081C1866.7 1081 1813.3 1081 1760 1081C1706.7 1081 1653.3 1081 1600 1081C1546.7 1081 1493.3 1081 1440 1081C1386.7 1081 1333.3 1081 1280 1081C1226.7 1081 1173.3 1081 1120 1081C1066.7 1081 1013.3 1081 960 1081C906.7 1081 853.3 1081 800 1081C746.7 1081 693.3 1081 640 1081C586.7 1081 533.3 1081 480 1081C426.7 1081 373.3 1081 320 1081C266.7 1081 213.3 1081 160 1081C106.7 1081 53.3 1081 26.7 1081L0 1081Z" fill="#ab7748"></path><path d="M0 973L26.7 980.7C53.3 988.3 106.7 1003.7 160 1007.3C213.3 1011 266.7 1003 320 974C373.3 945 426.7 895 480 877C533.3 859 586.7 873 640 900.5C693.3 928 746.7 969 800 959.8C853.3 950.7 906.7 891.3 960 888.3C1013.3 885.3 1066.7 938.7 1120 947C1173.3 955.3 1226.7 918.7 1280 908.3C1333.3 898 1386.7 914 1440 932.5C1493.3 951 1546.7 972 1600 985.5C1653.3 999 1706.7 1005 1760 991.2C1813.3 977.3 1866.7 943.7 1893.3 926.8L1920 910L1920 1081L1893.3 1081C1866.7 1081 1813.3 1081 1760 1081C1706.7 1081 1653.3 1081 1600 1081C1546.7 1081 1493.3 1081 1440 1081C1386.7 1081 1333.3 1081 1280 1081C1226.7 1081 1173.3 1081 1120 1081C1066.7 1081 1013.3 1081 960 1081C906.7 1081 853.3 1081 800 1081C746.7 1081 693.3 1081 640 1081C586.7 1081 533.3 1081 480 1081C426.7 1081 373.3 1081 320 1081C266.7 1081 213.3 1081 160 1081C106.7 1081 53.3 1081 26.7 1081L0 1081Z" fill="#9d6230"></path><path d="M0 1028L26.7 1019.5C53.3 1011 106.7 994 160 983.3C213.3 972.7 266.7 968.3 320 961.7C373.3 955 426.7 946 480 939.2C533.3 932.3 586.7 927.7 640 933C693.3 938.3 746.7 953.7 800 950.8C853.3 948 906.7 927 960 915.3C1013.3 903.7 1066.7 901.3 1120 906.7C1173.3 912 1226.7 925 1280 928.3C1333.3 931.7 1386.7 925.3 1440 940.5C1493.3 955.7 1546.7 992.3 1600 994C1653.3 995.7 1706.7 962.3 1760 958.5C1813.3 954.7 1866.7 980.3 1893.3 993.2L1920 1006L1920 1081L1893.3 1081C1866.7 1081 1813.3 1081 1760 1081C1706.7 1081 1653.3 1081 1600 1081C1546.7 1081 1493.3 1081 1440 1081C1386.7 1081 1333.3 1081 1280 1081C1226.7 1081 1173.3 1081 1120 1081C1066.7 1081 1013.3 1081 960 1081C906.7 1081 853.3 1081 800 1081C746.7 1081 693.3 1081 640 1081C586.7 1081 533.3 1081 480 1081C426.7 1081 373.3 1081 320 1081C266.7 1081 213.3 1081 160 1081C106.7 1081 53.3 1081 26.7 1081L0 1081Z" fill="#8f4d17"></path></svg>