<svg id="visual" viewBox="0 0 1920 1080" width="1920" height="1080" xmlns="http://www.w3.org/2000/svg" xmlns:xlink="http://www.w3.org/1999/xlink" version="1.1"><rect x="0" y="0" width="1920" height="1080" fill="#c8b6f6"></rect><path d="M0 559L40 579.5C80 600 160 641 240 614.3C320 587.7 400 493.3 480 452.2C560 411 640 423 720 443C800 463 880 491 960 504.3C1040 517.7 1120 516.3 1200 537.5C1280 558.7 1360 602.3 1440 618.5C1520 634.7 1600 623.3 1680 592.8C1760 562.3 1840 512.7 1880 487.8L1920 463L1920 1081L1880 1081C1840 1081 1760 1081 1680 1081C1600 1081 1520 1081 1440 1081C1360 1081 1280 1081 1200 1081C1120 1081 1040 1081 960 1081C880 1081 800 1081 720 1081C640 1081 560 1081 480 1081C400 1081 320 1081 240 1081C160 1081 80 1081 40 1081L0 1081Z" fill="#eee2d3"></path><path d="M0 498L40 497.3C80 496.7 160 495.3 240 541.5C320 587.7 400 681.3 480 702.2C560 723 640 671 720 627.7C800 584.3 880 549.7 960 576.2C1040 602.7 1120 690.3 1200 719.7C1280 749 1360 720 1440 724.2C1520 728.3 1600 765.7 1680 738.2C1760 710.7 1840 618.3 1880 572.2L1920 526L1920 1081L1880 1081C1840 1081 1760 1081 1680 1081C1600 1081 1520 1081 1440 1081C1360 1081 1280 1081 1200 1081C1120 1081 1040 1081 960 1081C880 1081 800 1081 720 1081C640 1081 560 1081 480 1081C400 1081 320 1081 240 1081C160 1081 80 1081 40 1081L0 1081Z" fill="#e0ccb5"></path><path d="M0 711L40 705.7C80 700.3 160 689.7 240 700.5C320 711.3 400 743.7 480 770.2C560 796.7 640 817.3 720 812.2C800 807 880 776 960 732.8C1040 689.7 1120 634.3 1200 604.8C1280 575.3 1360 571.7 1440 574.8C1520 578 1600 588 1680 616C1760 644 1840 690 1880 713L1920 736L1920 1081L1880 1081C1840 1081 1760 1081 1680 1081C1600 1081 1520 1081 1440 1081C1360 1081 1280 1081 1200 1081C1120 1081 1040 1081 960 1081C880 1081 800 1081 720 1081C640 1081 560 1081 480 1081C400 1081 320 1081 240 1081C160 1081 80 1081 40 1081L0 1081Z" fill="#d3b798"></path><path d="M0 636L40 653.2C80 670.3 160 704.7 240 740C320 775.3 400 811.7 480 813.7C560 815.7 640 783.3 720 786C800 788.7 880 826.3 960 827.5C1040 828.7 1120 793.3 1200 774.7C1280 756 1360 754 1440 744.5C1520 735 1600 718 1680 714.2C1760 710.3 1840 719.7 1880 724.3L1920 729L1920 1081L1880 1081C1840 1081 1760 1081 1680 1081C1600 1081 1520 1081 1440 1081C1360 1081 1280 1081 1200 1081C1120 1081 1040 1081 960 1081C880 1081 800 1081 720 1081C640 1081 560 1081 480 1081C400 1081 320 1081 240 1081C160 1081 80 1081 40 1081L0 1081Z" fill="#c6a27c"></path><path d="M0 878L40 866.3C80 854.7 160 831.3 240 832.5C320 833.7 400 859.3 480 857.8C560 856.3 640 827.7 720 809.7C800 791.7 880 784.3 960 794.8C1040 805.3 1120 833.7 1200 840.5C1280 847.3 1360 832.7 1440 814.3C1520 796 1600 774 1680 781.8C1760 789.7 1840 827.3 1880 846.2L1920 865L1920 1081L1880 1081C1840 1081 1760 1081 1680 1081C1600 1081 1520 1081 1440 1081C1360 1081 1280 1081 1200 1081C1120 1081 1040 1081 960 1081C880 1081 800 1081 720 1081C640 1081 560 1081 480 1081C400 1081 320 1081 240 1081C160 1081 80 1081 40 1081L0 1081Z" fill="#b88c62"></path><path d="M0 835L40 825.5C80 816 160 797 240 798C320 799 400 820 480 825.2C560 830.3 640 819.7 720 816.8C800 814 880 819 960 823.5C1040 828 1120 832 1200 824.2C1280 816.3 1360 796.7 1440 811.3C1520 826 1600 875 1680 884.8C1760 894.7 1840 865.3 1880 850.7L1920 836L1920 1081L1880 1081C1840 1081 1760 1081 1680 1081C1600 1081 1520 1081 1440 1081C1360 1081 1280 1081 1200 1081C1120 1081 1040 1081 960 1081C880 1081 800 1081 720 1081C640 1081 560 1081 480 1081C400 1081 320 1081 240 1081C160 1081 80 1081 40 1081L0 1081Z" fill="#ab7748"></path><path d="M0 927L40 933.3C80 939.7 160 952.3 240 944.8C320 937.3 400 909.7 480 911.5C560 913.3 640 944.7 720 940C800 935.3 880 894.7 960 890.8C1040 887 1120 920 1200 921C1280 922 1360 891 1440 880.8C1520 870.7 1600 881.3 1680 898.7C1760 916 1840 940 1880 952L1920 964L1920 1081L1880 1081C1840 1081 1760 1081 1680 1081C1600 1081 1520 1081 1440 1081C1360 1081 1280 1081 1200 1081C1120 1081 1040 1081 960 1081C880 1081 800 1081 720 1081C640 1081 560 1081 480 1081C400 1081 320 1081 240 1081C160 1081 80 1081 40 1081L0 1081Z" fill="#9d6230"></path><path d="M0 997L40 992.2C80 987.3 160 977.7 240 975.2C320 972.7 400 977.3 480 977.2C560 977 640 972 720 976.3C800 980.7 880 994.3 960 993.7C1040 993 1120 978 1200 978.8C1280 979.7 1360 996.3 1440 991.7C1520 987 1600 961 1680 960.2C1760 959.3 1840 983.7 1880 995.8L1920 1008L1920 1081L1880 1081C1840 1081 1760 1081 1680 1081C1600 1081 1520 1081 1440 1081C1360 1081 1280 1081 1200 1081C1120 1081 1040 1081 960 1081C880 1081 800 1081 720 1081C640 1081 560 1081 480 1081C400 1081 320 1081 240 1081C160 1081 80 1081 40 1081L0 1081Z" fill="#8f4d17"></path></svg>