<svg id="visual" viewBox="0 0 1920 1080" width="1920" height="1080" xmlns="http://www.w3.org/2000/svg" xmlns:xlink="http://www.w3.org/1999/xlink" version="1.1"><rect x="0" y="0" width="1920" height="1080" fill="#c8b6f6"></rect><path d="M0 751L21.3 775.3C42.7 799.7 85.3 848.3 128 802.5C170.7 756.7 213.3 616.3 256 559.7C298.7 503 341.3 530 384 575.3C426.7 620.7 469.3 684.3 512 685.5C554.7 686.7 597.3 625.3 640 591.8C682.7 558.3 725.3 552.7 768 503C810.7 453.3 853.3 359.7 896 338.2C938.7 316.7 981.3 367.3 1024 432.2C1066.7 497 1109.3 576 1152 665.5C1194.7 755 1237.3 855 1280 804.2C1322.7 753.3 1365.3 551.7 1408 497.8C1450.7 444 1493.3 538 1536 617.2C1578.7 696.3 1621.3 760.7 1664 726.2C1706.7 691.7 1749.3 558.3 1792 469.5C1834.7 380.7 1877.3 336.3 1898.7 314.2L1920 292L1920 1081L1898.7 1081C1877.3 1081 1834.7 1081 1792 1081C1749.3 1081 1706.7 1081 1664 1081C1621.3 1081 1578.7 1081 1536 1081C1493.3 1081 1450.7 1081 1408 1081C1365.3 1081 1322.7 1081 1280 1081C1237.3 1081 1194.7 1081 1152 1081C1109.3 1081 1066.7 1081 1024 1081C981.3 1081 938.7 1081 896 1081C853.3 1081 810.7 1081 768 1081C725.3 1081 682.7 1081 640 1081C597.3 1081 554.7 1081 512 1081C469.3 1081 426.7 1081 384 1081C341.3 1081 298.7 1081 256 1081C213.3 1081 170.7 1081 128 1081C85.3 1081 42.7 1081 21.3 1081L0 1081Z" fill="#eee2d3"></path><path d="M0 579L21.3 533C42.7 487 85.3 395 128 350.3C170.7 305.7 213.3 308.3 256 380.7C298.7 453 341.3 595 384 691.3C426.7 787.7 469.3 838.3 512 876C554.7 913.7 597.3 938.3 640 913C682.7 887.7 725.3 812.3 768 735.7C810.7 659 853.3 581 896 537.8C938.7 494.7 981.3 486.3 1024 513C1066.7 539.7 1109.3 601.3 1152 606.7C1194.7 612 1237.3 561 1280 520.2C1322.7 479.3 1365.3 448.7 1408 441.5C1450.7 434.3 1493.3 450.7 1536 529.7C1578.7 608.7 1621.3 750.3 1664 817.3C1706.7 884.3 1749.3 876.7 1792 835.2C1834.7 793.7 1877.3 718.3 1898.7 680.7L1920 643L1920 1081L1898.7 1081C1877.3 1081 1834.7 1081 1792 1081C1749.3 1081 1706.7 1081 1664 1081C1621.3 1081 1578.7 1081 1536 1081C1493.3 1081 1450.7 1081 1408 1081C1365.3 1081 1322.7 1081 1280 1081C1237.3 1081 1194.7 1081 1152 1081C1109.3 1081 1066.7 1081 1024 1081C981.3 1081 938.7 1081 896 1081C853.3 1081 810.7 1081 768 1081C725.3 1081 682.7 1081 640 1081C597.3 1081 554.7 1081 512 1081C469.3 1081 426.7 1081 384 1081C341.3 1081 298.7 1081 256 1081C213.3 1081 170.7 1081 128 1081C85.3 1081 42.7 1081 21.3 1081L0 1081Z" fill="#e0ccb5"></path><path d="M0 498L21.3 535.7C42.7 573.3 85.3 648.7 128 728.5C170.7 808.3 213.3 892.7 256 840.8C298.7 789 341.3 601 384 575C426.7 549 469.3 685 512 781.8C554.7 878.7 597.3 936.3 640 909.3C682.7 882.3 725.3 770.7 768 719.3C810.7 668 853.3 677 896 688.5C938.7 700 981.3 714 1024 681.2C1066.7 648.3 1109.3 568.7 1152 598.5C1194.7 628.3 1237.3 767.7 1280 787.7C1322.7 807.7 1365.3 708.3 1408 647.2C1450.7 586 1493.3 563 1536 564.3C1578.7 565.7 1621.3 591.3 1664 575.5C1706.7 559.7 1749.3 502.3 1792 503.7C1834.7 505 1877.3 565 1898.7 595L1920 625L1920 1081L1898.7 1081C1877.3 1081 1834.7 1081 1792 1081C1749.3 1081 1706.7 1081 1664 1081C1621.3 1081 1578.7 1081 1536 1081C1493.3 1081 1450.7 1081 1408 1081C1365.3 1081 1322.7 1081 1280 1081C1237.3 1081 1194.7 1081 1152 1081C1109.3 1081 1066.7 1081 1024 1081C981.3 1081 938.7 1081 896 1081C853.3 1081 810.7 1081 768 1081C725.3 1081 682.7 1081 640 1081C597.3 1081 554.7 1081 512 1081C469.3 1081 426.7 1081 384 1081C341.3 1081 298.7 1081 256 1081C213.3 1081 170.7 1081 128 1081C85.3 1081 42.7 1081 21.3 1081L0 1081Z" fill="#d3b798"></path><path d="M0 499L21.3 507.8C42.7 516.7 85.3 534.3 128 575.3C170.7 616.3 213.3 680.7 256 750.5C298.7 820.3 341.3 895.7 384 863.2C426.7 830.7 469.3 690.3 512 651.2C554.7 612 597.3 674 640 741C682.7 808 725.3 880 768 866.3C810.7 852.7 853.3 753.3 896 757.7C938.7 762 981.3 870 1024 896.7C1066.7 923.3 1109.3 868.7 1152 870C1194.7 871.3 1237.3 928.7 1280 934.3C1322.7 940 1365.3 894 1408 849.5C1450.7 805 1493.3 762 1536 780C1578.7 798 1621.3 877 1664 899.7C1706.7 922.3 1749.3 888.7 1792 835.5C1834.7 782.3 1877.3 709.7 1898.7 673.3L1920 637L1920 1081L1898.7 1081C1877.3 1081 1834.7 1081 1792 1081C1749.3 1081 1706.7 1081 1664 1081C1621.3 1081 1578.7 1081 1536 1081C1493.3 1081 1450.7 1081 1408 1081C1365.3 1081 1322.7 1081 1280 1081C1237.3 1081 1194.7 1081 1152 1081C1109.3 1081 1066.7 1081 1024 1081C981.3 1081 938.7 1081 896 1081C853.3 1081 810.7 1081 768 1081C725.3 1081 682.7 1081 640 1081C597.3 1081 554.7 1081 512 1081C469.3 1081 426.7 1081 384 1081C341.3 1081 298.7 1081 256 1081C213.3 1081 170.7 1081 128 1081C85.3 1081 42.7 1081 21.3 1081L0 1081Z" fill="#c6a27c"></path><path d="M0 724L21.3 718.7C42.7 713.3 85.3 702.7 128 745C170.7 787.3 213.3 882.7 256 905.2C298.7 927.7 341.3 877.3 384 881.2C426.7 885 469.3 943 512 910.7C554.7 878.3 597.3 755.7 640 742.3C682.7 729 725.3 825 768 868.7C810.7 912.3 853.3 903.7 896 902C938.7 900.3 981.3 905.7 1024 856.7C1066.7 807.7 1109.3 704.3 1152 655.3C1194.7 606.3 1237.3 611.7 1280 626.2C1322.7 640.7 1365.3 664.3 1408 672.7C1450.7 681 1493.3 674 1536 727.5C1578.7 781 1621.3 895 1664 895.7C1706.7 896.3 1749.3 783.7 1792 727.2C1834.7 670.7 1877.3 670.3 1898.7 670.2L1920 670L1920 1081L1898.7 1081C1877.3 1081 1834.7 1081 1792 1081C1749.3 1081 1706.7 1081 1664 1081C1621.3 1081 1578.7 1081 1536 1081C1493.3 1081 1450.7 1081 1408 1081C1365.3 1081 1322.7 1081 1280 1081C1237.3 1081 1194.7 1081 1152 1081C1109.3 1081 1066.7 1081 1024 1081C981.3 1081 938.7 1081 896 1081C853.3 1081 810.7 1081 768 1081C725.3 1081 682.7 1081 640 1081C597.3 1081 554.7 1081 512 1081C469.3 1081 426.7 1081 384 1081C341.3 1081 298.7 1081 256 1081C213.3 1081 170.7 1081 128 1081C85.3 1081 42.7 1081 21.3 1081L0 1081Z" fill="#b88c62"></path><path d="M0 901L21.3 870.8C42.7 840.7 85.3 780.3 128 783.2C170.7 786 213.3 852 256 875.7C298.7 899.3 341.3 880.7 384 861.5C426.7 842.3 469.3 822.7 512 847.5C554.7 872.3 597.3 941.7 640 931.8C682.7 922 725.3 833 768 816C810.7 799 853.3 854 896 851.7C938.7 849.3 981.3 789.7 1024 780.5C1066.7 771.3 1109.3 812.7 1152 827.8C1194.7 843 1237.3 832 1280 817.7C1322.7 803.3 1365.3 785.7 1408 776.3C1450.7 767 1493.3 766 1536 762C1578.7 758 1621.3 751 1664 766.5C1706.7 782 1749.3 820 1792 818.7C1834.7 817.3 1877.3 776.7 1898.7 756.3L1920 736L1920 1081L1898.7 1081C1877.3 1081 1834.7 1081 1792 1081C1749.3 1081 1706.7 1081 1664 1081C1621.3 1081 1578.7 1081 1536 1081C1493.3 1081 1450.7 1081 1408 1081C1365.3 1081 1322.7 1081 1280 1081C1237.3 1081 1194.7 1081 1152 1081C1109.3 1081 1066.7 1081 1024 1081C981.3 1081 938.7 1081 896 1081C853.3 1081 810.7 1081 768 1081C725.3 1081 682.7 1081 640 1081C597.3 1081 554.7 1081 512 1081C469.3 1081 426.7 1081 384 1081C341.3 1081 298.7 1081 256 1081C213.3 1081 170.7 1081 128 1081C85.3 1081 42.7 1081 21.3 1081L0 1081Z" fill="#ab7748"></path><path d="M0 925L21.3 912.3C42.7 899.7 85.3 874.3 128 880C170.7 885.7 213.3 922.3 256 926.2C298.7 930 341.3 901 384 892.2C426.7 883.3 469.3 894.7 512 905.3C554.7 916 597.3 926 640 932.2C682.7 938.3 725.3 940.7 768 952C810.7 963.3 853.3 983.7 896 971.8C938.7 960 981.3 916 1024 906.2C1066.7 896.3 1109.3 920.7 1152 942C1194.7 963.3 1237.3 981.7 1280 971.8C1322.7 962 1365.3 924 1408 920.3C1450.7 916.7 1493.3 947.3 1536 956.7C1578.7 966 1621.3 954 1664 922.8C1706.7 891.7 1749.3 841.3 1792 843.8C1834.7 846.3 1877.3 901.7 1898.7 929.3L1920 957L1920 1081L1898.7 1081C1877.3 1081 1834.7 1081 1792 1081C1749.3 1081 1706.7 1081 1664 1081C1621.3 1081 1578.7 1081 1536 1081C1493.3 1081 1450.7 1081 1408 1081C1365.3 1081 1322.7 1081 1280 1081C1237.3 1081 1194.7 1081 1152 1081C1109.3 1081 1066.7 1081 1024 1081C981.3 1081 938.7 1081 896 1081C853.3 1081 810.7 1081 768 1081C725.3 1081 682.7 1081 640 1081C597.3 1081 554.7 1081 512 1081C469.3 1081 426.7 1081 384 1081C341.3 1081 298.7 1081 256 1081C213.3 1081 170.7 1081 128 1081C85.3 1081 42.7 1081 21.3 1081L0 1081Z" fill="#9d6230"></path><path d="M0 1015L21.3 1001.3C42.7 987.7 85.3 960.3 128 953.3C170.7 946.3 213.3 959.7 256 966C298.7 972.3 341.3 971.7 384 969C426.7 966.3 469.3 961.7 512 969.3C554.7 977 597.3 997 640 1004.5C682.7 1012 725.3 1007 768 1004.7C810.7 1002.3 853.3 1002.7 896 1004C938.7 1005.3 981.3 1007.7 1024 1010.3C1066.7 1013 1109.3 1016 1152 1010.3C1194.7 1004.7 1237.3 990.3 1280 985.7C1322.7 981 1365.3 986 1408 983.7C1450.7 981.3 1493.3 971.7 1536 971.8C1578.7 972 1621.3 982 1664 985.8C1706.7 989.7 1749.3 987.3 1792 974.7C1834.7 962 1877.3 939 1898.7 927.5L1920 916L1920 1081L1898.7 1081C1877.3 1081 1834.7 1081 1792 1081C1749.3 1081 1706.7 1081 1664 1081C1621.3 1081 1578.7 1081 1536 1081C1493.3 1081 1450.7 1081 1408 1081C1365.3 1081 1322.7 1081 1280 1081C1237.3 1081 1194.7 1081 1152 1081C1109.3 1081 1066.7 1081 1024 1081C981.3 1081 938.7 1081 896 1081C853.3 1081 810.7 1081 768 1081C725.3 1081 682.7 1081 640 1081C597.3 1081 554.7 1081 512 1081C469.3 1081 426.7 1081 384 1081C341.3 1081 298.7 1081 256 1081C213.3 1081 170.7 1081 128 1081C85.3 1081 42.7 1081 21.3 1081L0 1081Z" fill="#8f4d17"></path></svg>