<svg id="visual" viewBox="0 0 1920 1080" width="1920" height="1080" xmlns="http://www.w3.org/2000/svg" xmlns:xlink="http://www.w3.org/1999/xlink" version="1.1"><rect x="0" y="0" width="1920" height="1080" fill="#c8b6f6"></rect><path d="M0 455L45.7 458.3C91.3 461.7 182.7 468.3 274.2 498.3C365.7 528.3 457.3 581.7 548.8 575.8C640.3 570 731.7 505 823 477.8C914.3 450.7 1005.7 461.3 1097 477.2C1188.3 493 1279.7 514 1371.2 555C1462.7 596 1554.3 657 1645.8 682.5C1737.3 708 1828.7 698 1874.3 693L1920 688L1920 1081L1874.3 1081C1828.7 1081 1737.3 1081 1645.8 1081C1554.3 1081 1462.7 1081 1371.2 1081C1279.7 1081 1188.3 1081 1097 1081C1005.7 1081 914.3 1081 823 1081C731.7 1081 640.3 1081 548.8 1081C457.3 1081 365.7 1081 274.2 1081C182.7 1081 91.3 1081 45.7 1081L0 1081Z" fill="#eee2d3"></path><path d="M0 480L45.7 498.7C91.3 517.3 182.7 554.7 274.2 586.3C365.7 618 457.3 644 548.8 662.7C640.3 681.3 731.7 692.7 823 694.3C914.3 696 1005.7 688 1097 664.8C1188.3 641.7 1279.7 603.3 1371.2 573.2C1462.7 543 1554.3 521 1645.8 553C1737.3 585 1828.7 671 1874.3 714L1920 757L1920 1081L1874.3 1081C1828.7 1081 1737.3 1081 1645.8 1081C1554.3 1081 1462.7 1081 1371.2 1081C1279.7 1081 1188.3 1081 1097 1081C1005.7 1081 914.3 1081 823 1081C731.7 1081 640.3 1081 548.8 1081C457.3 1081 365.7 1081 274.2 1081C182.7 1081 91.3 1081 45.7 1081L0 1081Z" fill="#e0ccb5"></path><path d="M0 551L45.7 548C91.3 545 182.7 539 274.2 584.7C365.7 630.3 457.3 727.7 548.8 758.7C640.3 789.7 731.7 754.3 823 704.2C914.3 654 1005.7 589 1097 560.3C1188.3 531.7 1279.7 539.3 1371.2 575C1462.7 610.7 1554.3 674.3 1645.8 711.3C1737.3 748.3 1828.7 758.7 1874.3 763.8L1920 769L1920 1081L1874.3 1081C1828.7 1081 1737.3 1081 1645.8 1081C1554.3 1081 1462.7 1081 1371.2 1081C1279.7 1081 1188.3 1081 1097 1081C1005.7 1081 914.3 1081 823 1081C731.7 1081 640.3 1081 548.8 1081C457.3 1081 365.7 1081 274.2 1081C182.7 1081 91.3 1081 45.7 1081L0 1081Z" fill="#d3b798"></path><path d="M0 864L45.7 858.7C91.3 853.3 182.7 842.7 274.2 821.7C365.7 800.7 457.3 769.3 548.8 770.5C640.3 771.7 731.7 805.3 823 824.2C914.3 843 1005.7 847 1097 826.5C1188.3 806 1279.7 761 1371.2 736C1462.7 711 1554.3 706 1645.8 700.7C1737.3 695.3 1828.7 689.7 1874.3 686.8L1920 684L1920 1081L1874.3 1081C1828.7 1081 1737.3 1081 1645.8 1081C1554.3 1081 1462.7 1081 1371.2 1081C1279.7 1081 1188.3 1081 1097 1081C1005.7 1081 914.3 1081 823 1081C731.7 1081 640.3 1081 548.8 1081C457.3 1081 365.7 1081 274.2 1081C182.7 1081 91.3 1081 45.7 1081L0 1081Z" fill="#c6a27c"></path><path d="M0 734L45.7 737.3C91.3 740.7 182.7 747.3 274.2 748.2C365.7 749 457.3 744 548.8 746.2C640.3 748.3 731.7 757.7 823 771.7C914.3 785.7 1005.7 804.3 1097 792.7C1188.3 781 1279.7 739 1371.2 727.7C1462.7 716.3 1554.3 735.7 1645.8 731.2C1737.3 726.7 1828.7 698.3 1874.3 684.2L1920 670L1920 1081L1874.3 1081C1828.7 1081 1737.3 1081 1645.8 1081C1554.3 1081 1462.7 1081 1371.2 1081C1279.7 1081 1188.3 1081 1097 1081C1005.7 1081 914.3 1081 823 1081C731.7 1081 640.3 1081 548.8 1081C457.3 1081 365.7 1081 274.2 1081C182.7 1081 91.3 1081 45.7 1081L0 1081Z" fill="#b88c62"></path><path d="M0 917L45.7 914.5C91.3 912 182.7 907 274.2 907.5C365.7 908 457.3 914 548.8 908.5C640.3 903 731.7 886 823 879.8C914.3 873.7 1005.7 878.3 1097 860.5C1188.3 842.7 1279.7 802.3 1371.2 800C1462.7 797.7 1554.3 833.3 1645.8 832.3C1737.3 831.3 1828.7 793.7 1874.3 774.8L1920 756L1920 1081L1874.3 1081C1828.7 1081 1737.3 1081 1645.8 1081C1554.3 1081 1462.7 1081 1371.2 1081C1279.7 1081 1188.3 1081 1097 1081C1005.7 1081 914.3 1081 823 1081C731.7 1081 640.3 1081 548.8 1081C457.3 1081 365.7 1081 274.2 1081C182.7 1081 91.3 1081 45.7 1081L0 1081Z" fill="#ab7748"></path><path d="M0 893L45.7 905.5C91.3 918 182.7 943 274.2 938.2C365.7 933.3 457.3 898.7 548.8 901.2C640.3 903.7 731.7 943.3 823 947.5C914.3 951.7 1005.7 920.3 1097 913.8C1188.3 907.3 1279.7 925.7 1371.2 942.2C1462.7 958.7 1554.3 973.3 1645.8 961.5C1737.3 949.7 1828.7 911.3 1874.3 892.2L1920 873L1920 1081L1874.3 1081C1828.7 1081 1737.3 1081 1645.8 1081C1554.3 1081 1462.7 1081 1371.2 1081C1279.7 1081 1188.3 1081 1097 1081C1005.7 1081 914.3 1081 823 1081C731.7 1081 640.3 1081 548.8 1081C457.3 1081 365.7 1081 274.2 1081C182.7 1081 91.3 1081 45.7 1081L0 1081Z" fill="#9d6230"></path><path d="M0 984L45.7 987.2C91.3 990.3 182.7 996.7 274.2 990.5C365.7 984.3 457.3 965.7 548.8 953C640.3 940.3 731.7 933.7 823 936.8C914.3 940 1005.7 953 1097 964.3C1188.3 975.7 1279.7 985.3 1371.2 985.2C1462.7 985 1554.3 975 1645.8 979.3C1737.3 983.7 1828.7 1002.3 1874.3 1011.7L1920 1021L1920 1081L1874.3 1081C1828.7 1081 1737.3 1081 1645.8 1081C1554.3 1081 1462.7 1081 1371.2 1081C1279.7 1081 1188.3 1081 1097 1081C1005.7 1081 914.3 1081 823 1081C731.7 1081 640.3 1081 548.8 1081C457.3 1081 365.7 1081 274.2 1081C182.7 1081 91.3 1081 45.7 1081L0 1081Z" fill="#8f4d17"></path></svg>