<svg id="visual" viewBox="0 0 1920 1080" width="1920" height="1080" xmlns="http://www.w3.org/2000/svg" xmlns:xlink="http://www.w3.org/1999/xlink" version="1.1"><rect x="0" y="0" width="1920" height="1080" fill="#c8b6f6"></rect><path d="M0 493L80 516.5C160 540 320 587 480 607.3C640 627.7 800 621.3 960 576.3C1120 531.3 1280 447.7 1440 411.8C1600 376 1760 388 1840 394L1920 400L1920 1081L1840 1081C1760 1081 1600 1081 1440 1081C1280 1081 1120 1081 960 1081C800 1081 640 1081 480 1081C320 1081 160 1081 80 1081L0 1081Z" fill="#eee2d3"></path><path d="M0 712L80 682.7C160 653.3 320 594.7 480 595.7C640 596.7 800 657.3 960 682.2C1120 707 1280 696 1440 693.7C1600 691.3 1760 697.7 1840 700.8L1920 704L1920 1081L1840 1081C1760 1081 1600 1081 1440 1081C1280 1081 1120 1081 960 1081C800 1081 640 1081 480 1081C320 1081 160 1081 80 1081L0 1081Z" fill="#e0ccb5"></path><path d="M0 679L80 657.5C160 636 320 593 480 569.5C640 546 800 542 960 557.8C1120 573.7 1280 609.3 1440 644.8C1600 680.3 1760 715.7 1840 733.3L1920 751L1920 1081L1840 1081C1760 1081 1600 1081 1440 1081C1280 1081 1120 1081 960 1081C800 1081 640 1081 480 1081C320 1081 160 1081 80 1081L0 1081Z" fill="#d3b798"></path><path d="M0 873L80 831C160 789 320 705 480 691C640 677 800 733 960 764.5C1120 796 1280 803 1440 801.5C1600 800 1760 790 1840 785L1920 780L1920 1081L1840 1081C1760 1081 1600 1081 1440 1081C1280 1081 1120 1081 960 1081C800 1081 640 1081 480 1081C320 1081 160 1081 80 1081L0 1081Z" fill="#c6a27c"></path><path d="M0 701L80 736C160 771 320 841 480 876.7C640 912.3 800 913.7 960 907.7C1120 901.7 1280 888.3 1440 852.7C1600 817 1760 759 1840 730L1920 701L1920 1081L1840 1081C1760 1081 1600 1081 1440 1081C1280 1081 1120 1081 960 1081C800 1081 640 1081 480 1081C320 1081 160 1081 80 1081L0 1081Z" fill="#b88c62"></path><path d="M0 930L80 903.7C160 877.3 320 824.7 480 804.3C640 784 800 796 960 825.3C1120 854.7 1280 901.3 1440 908.5C1600 915.7 1760 883.3 1840 867.2L1920 851L1920 1081L1840 1081C1760 1081 1600 1081 1440 1081C1280 1081 1120 1081 960 1081C800 1081 640 1081 480 1081C320 1081 160 1081 80 1081L0 1081Z" fill="#ab7748"></path><path d="M0 887L80 893.5C160 900 320 913 480 906.2C640 899.3 800 872.7 960 867.7C1120 862.7 1280 879.3 1440 902.2C1600 925 1760 954 1840 968.5L1920 983L1920 1081L1840 1081C1760 1081 1600 1081 1440 1081C1280 1081 1120 1081 960 1081C800 1081 640 1081 480 1081C320 1081 160 1081 80 1081L0 1081Z" fill="#9d6230"></path><path d="M0 924L80 924.5C160 925 320 926 480 925.7C640 925.3 800 923.7 960 934.2C1120 944.7 1280 967.3 1440 968.2C1600 969 1760 948 1840 937.5L1920 927L1920 1081L1840 1081C1760 1081 1600 1081 1440 1081C1280 1081 1120 1081 960 1081C800 1081 640 1081 480 1081C320 1081 160 1081 80 1081L0 1081Z" fill="#8f4d17"></path></svg>