<svg id="visual" viewBox="0 0 1920 1080" width="1920" height="1080" xmlns="http://www.w3.org/2000/svg" xmlns:xlink="http://www.w3.org/1999/xlink" version="1.1"><rect x="0" y="0" width="1920" height="1080" fill="#c8b6f6"></rect><path d="M0 593L80 593C160 593 320 593 480 593C640 593 800 593 960 593C1120 593 1280 593 1440 593C1600 593 1760 593 1840 593L1920 593L1920 1081L1840 1081C1760 1081 1600 1081 1440 1081C1280 1081 1120 1081 960 1081C800 1081 640 1081 480 1081C320 1081 160 1081 80 1081L0 1081Z" fill="#eee2d3"></path><path d="M0 647L80 647C160 647 320 647 480 647C640 647 800 647 960 647C1120 647 1280 647 1440 647C1600 647 1760 647 1840 647L1920 647L1920 1081L1840 1081C1760 1081 1600 1081 1440 1081C1280 1081 1120 1081 960 1081C800 1081 640 1081 480 1081C320 1081 160 1081 80 1081L0 1081Z" fill="#e0ccb5"></path><path d="M0 701L80 701C160 701 320 701 480 701C640 701 800 701 960 701C1120 701 1280 701 1440 701C1600 701 1760 701 1840 701L1920 701L1920 1081L1840 1081C1760 1081 1600 1081 1440 1081C1280 1081 1120 1081 960 1081C800 1081 640 1081 480 1081C320 1081 160 1081 80 1081L0 1081Z" fill="#d3b798"></path><path d="M0 755L80 755C160 755 320 755 480 755C640 755 800 755 960 755C1120 755 1280 755 1440 755C1600 755 1760 755 1840 755L1920 755L1920 1081L1840 1081C1760 1081 1600 1081 1440 1081C1280 1081 1120 1081 960 1081C800 1081 640 1081 480 1081C320 1081 160 1081 80 1081L0 1081Z" fill="#c6a27c"></path><path d="M0 809L80 809C160 809 320 809 480 809C640 809 800 809 960 809C1120 809 1280 809 1440 809C1600 809 1760 809 1840 809L1920 809L1920 1081L1840 1081C1760 1081 1600 1081 1440 1081C1280 1081 1120 1081 960 1081C800 1081 640 1081 480 1081C320 1081 160 1081 80 1081L0 1081Z" fill="#b88c62"></path><path d="M0 863L80 863C160 863 320 863 480 863C640 863 800 863 960 863C1120 863 1280 863 1440 863C1600 863 1760 863 1840 863L1920 863L1920 1081L1840 1081C1760 1081 1600 1081 1440 1081C1280 1081 1120 1081 960 1081C800 1081 640 1081 480 1081C320 1081 160 1081 80 1081L0 1081Z" fill="#ab7748"></path><path d="M0 917L80 917C160 917 320 917 480 917C640 917 800 917 960 917C1120 917 1280 917 1440 917C1600 917 1760 917 1840 917L1920 917L1920 1081L1840 1081C1760 1081 1600 1081 1440 1081C1280 1081 1120 1081 960 1081C800 1081 640 1081 480 1081C320 1081 160 1081 80 1081L0 1081Z" fill="#9d6230"></path><path d="M0 971L80 971C160 971 320 971 480 971C640 971 800 971 960 971C1120 971 1280 971 1440 971C1600 971 1760 971 1840 971L1920 971L1920 1081L1840 1081C1760 1081 1600 1081 1440 1081C1280 1081 1120 1081 960 1081C800 1081 640 1081 480 1081C320 1081 160 1081 80 1081L0 1081Z" fill="#8f4d17"></path></svg>